<svg width="202" height="175" viewBox="0 0 202 175" fill="none" xmlns="http://www.w3.org/2000/svg">
<path d="M177.611 174.998V169.291H193.194C194.257 169.291 194.792 168.72 194.792 167.581V159.706H193.816C193.515 160.391 193.017 161.075 192.336 161.76C191.648 162.409 190.739 162.96 189.599 163.414C188.453 163.832 187.01 164.042 185.259 164.042C183.091 164.042 181.17 163.568 179.496 162.616C177.822 161.627 176.529 160.257 175.616 158.506C174.704 156.719 174.247 154.644 174.247 152.285V135.392H180.752V151.77C180.752 154.052 181.303 155.746 182.406 156.849C183.545 157.951 185.146 158.503 187.2 158.503C189.523 158.503 191.343 157.741 192.677 156.221C194.047 154.697 194.731 152.512 194.731 149.659V135.392H201.233V168.947C201.233 170.812 200.706 172.275 199.636 173.341C198.574 174.444 197.127 174.995 195.299 174.995H177.608L177.611 174.998Z" fill="white"/>
<path d="M138.023 175V135.393H144.472V139.102H145.441C146.089 137.923 147.115 136.877 148.522 135.965C149.968 135.053 152.023 134.595 154.686 134.595C156.968 134.595 159.08 135.166 161.021 136.305C162.999 137.408 164.579 139.045 165.759 141.214C166.938 143.382 167.526 145.988 167.526 149.032V149.944C167.526 152.988 166.935 155.594 165.759 157.763C164.579 159.931 163.019 161.585 161.078 162.728C159.137 163.83 157.008 164.382 154.686 164.382C152.898 164.382 151.395 164.171 150.179 163.753C148.999 163.336 148.03 162.784 147.269 162.1C146.547 161.415 145.976 160.73 145.558 160.045H144.589V174.997H138.027L138.023 175ZM152.748 158.675C155.144 158.675 157.105 157.913 158.625 156.393C160.186 154.832 160.964 152.627 160.964 149.774V149.203C160.964 146.312 160.182 144.104 158.625 142.584C157.065 141.063 155.107 140.302 152.748 140.302C150.389 140.302 148.411 141.063 146.814 142.584C145.254 144.107 144.475 146.312 144.475 149.203V149.774C144.475 152.627 145.257 154.832 146.814 156.393C148.411 157.913 150.389 158.675 152.748 158.675Z" fill="white"/>
<path d="M116.38 164.385C113.564 164.385 111.035 163.814 108.789 162.671C106.584 161.491 104.833 159.838 103.54 157.706C102.284 155.537 101.656 152.951 101.656 149.944V149.032C101.656 146.025 102.284 143.439 103.54 141.27C104.833 139.102 106.584 137.448 108.789 136.305C111.035 135.166 113.564 134.595 116.38 134.595C119.197 134.595 121.706 135.166 123.915 136.305C126.12 137.448 127.854 139.102 129.107 141.27C130.4 143.439 131.048 146.025 131.048 149.032V149.944C131.048 152.951 130.4 155.537 129.107 157.706C127.851 159.838 126.12 161.491 123.915 162.671C121.71 163.814 119.197 164.385 116.38 164.385ZM116.38 158.561C118.776 158.561 120.737 157.799 122.258 156.279C123.778 154.719 124.54 152.55 124.54 149.774V149.203C124.54 146.426 123.778 144.274 122.258 142.754C120.734 141.194 118.776 140.415 116.38 140.415C113.985 140.415 112.024 141.194 110.503 142.754C108.983 144.274 108.221 146.426 108.221 149.203V149.774C108.221 152.55 108.983 154.719 110.503 156.279C112.027 157.803 113.985 158.561 116.38 158.561Z" fill="white"/>
<path d="M67.9121 163.582V135.389H74.3606V139.328H75.3296C75.8241 138.263 76.7195 137.253 78.0126 136.305C79.3056 135.352 81.2669 134.878 83.8897 134.878C86.0582 134.878 87.9794 135.372 89.6533 136.361C91.3272 137.35 92.6203 138.72 93.5358 140.471C94.488 142.222 94.9625 144.293 94.9625 146.692V163.586H88.4004V147.207C88.4004 144.925 87.829 143.231 86.6897 142.128C85.5871 140.986 84.0067 140.414 81.9518 140.414C79.6297 140.414 77.8054 141.196 76.4723 142.753C75.1425 144.277 74.4742 146.462 74.4742 149.315V163.582H67.9121Z" fill="white"/>
<path d="M43.7091 164.384C41.7311 164.384 39.9436 164.04 38.3431 163.355C36.746 162.634 35.4697 161.604 34.5208 160.275C33.6086 158.945 33.1509 157.308 33.1509 155.366C33.1509 153.425 33.6086 151.865 34.5208 150.572C35.473 149.279 36.7661 148.31 38.4032 147.662C40.0404 146.977 41.9048 146.633 43.9964 146.633H52.1557V144.922C52.1557 143.438 51.6979 142.239 50.7858 141.327C49.8736 140.374 48.4469 139.9 46.5057 139.9C44.5644 139.9 43.1578 140.358 42.1688 141.27C41.2165 142.145 40.5884 143.285 40.2843 144.695L34.2334 142.697C34.6912 141.213 35.4129 139.863 36.4019 138.644C37.4276 137.428 38.7808 136.455 40.4547 135.734C42.1287 134.972 44.1835 134.591 46.6193 134.591C50.3113 134.591 53.2015 135.523 55.293 137.387C57.4247 139.215 58.4906 141.878 58.4906 145.376V156.449C58.4906 157.592 59.0218 158.16 60.0877 158.16H62.4833V163.582H57.8591C56.4892 163.582 55.3665 163.238 54.4912 162.553C53.6158 161.868 53.178 160.936 53.178 159.757V159.643H52.2091C51.9819 160.174 51.5809 160.823 51.0096 161.584C50.4383 162.346 49.5629 163.011 48.3834 163.582C47.2407 164.114 45.6837 164.381 43.7024 164.381L43.7091 164.384ZM44.7916 159.018C46.9601 159.018 48.7276 158.41 50.0975 157.194C51.4674 155.938 52.1523 154.264 52.1523 152.172V151.601H44.3907C42.984 151.601 41.8414 151.905 40.966 152.513C40.0906 153.121 39.6528 154.017 39.6528 155.196C39.6528 156.375 40.1106 157.271 41.0227 157.993C41.9349 158.678 43.1912 159.018 44.7883 159.018H44.7916Z" fill="white"/>
<path d="M14.5543 164.385C11.8145 164.385 9.342 163.814 7.13346 162.671C4.92827 161.532 3.17749 159.874 1.88444 157.706C0.628151 155.537 0 152.931 0 149.887V149.089C0 146.045 0.628151 143.439 1.88444 141.27C3.17749 139.102 4.92827 137.448 7.13346 136.305C9.33866 135.166 11.8145 134.595 14.5543 134.595C17.2941 134.595 19.5561 135.069 21.4605 136.021C23.4018 136.974 24.9621 138.283 26.1416 139.961C27.321 141.598 28.0828 143.442 28.4236 145.497L22.0887 146.81C21.935 145.631 21.5742 144.565 21.0028 143.613C20.4315 142.624 19.6129 141.842 18.5504 141.274C17.5213 140.702 16.2483 140.418 14.728 140.418C13.2078 140.418 11.761 140.763 10.5047 141.444C9.28853 142.092 8.31625 143.081 7.59455 144.411C6.9096 145.741 6.56878 147.341 6.56878 149.206V149.777C6.56878 151.642 6.91295 153.239 7.59455 154.572C8.31625 155.865 9.28853 156.854 10.5047 157.539C11.761 158.224 13.1677 158.565 14.728 158.565C17.0502 158.565 18.8009 157.973 19.977 156.797C21.1932 155.581 21.9551 154.021 22.2591 152.116L28.594 153.599C28.1363 155.577 27.3177 157.385 26.1416 159.022C24.9621 160.659 23.4018 161.969 21.4605 162.962C19.5594 163.914 17.2573 164.388 14.5543 164.388V164.385Z" fill="white"/>
<path d="M140.94 0C146.898 0 151.729 4.83022 151.729 10.7884V92.2435C151.729 98.2017 146.898 103.032 140.94 103.032H59.4852C53.527 103.032 48.6968 98.2017 48.6968 92.2435V10.7884C48.6968 4.83022 53.527 0 59.4852 0H140.94ZM77.2706 21.7249C74.0025 21.7251 71.3539 24.3747 71.3538 27.6432V74.6048C71.3538 74.6675 71.356 74.7298 71.358 74.792C71.356 74.8551 71.3538 74.9185 71.3538 74.9821C71.3539 78.259 74.0105 80.9157 77.2874 80.9157H123.138C126.415 80.9157 129.072 78.259 129.072 74.9821C129.072 71.7051 126.415 69.0485 123.138 69.0485H83.1889V27.6432C83.1887 24.3746 80.5389 21.7249 77.2706 21.7249ZM113.553 40.0065C111.043 37.3016 106.815 37.143 104.11 39.6529L94.7822 48.3088C92.0774 50.8189 91.92 55.0465 94.43 57.7514C96.9401 60.4562 101.168 60.6149 103.873 58.105L113.199 49.4491C115.904 46.9391 116.063 42.7114 113.553 40.0065Z" fill="white"/>
</svg>
