<svg width="131" height="32" viewBox="0 0 422 103" fill="none" xmlns="http://www.w3.org/2000/svg">
<path d="M92.2159 0C98.1723 0 103.001 4.82873 103.001 10.785V92.215C103.001 98.1713 98.1723 103 92.2159 103H10.786C4.8297 103 0.000976562 98.1713 0.000976562 92.215V10.785C0.000976562 4.82873 4.8297 0 10.786 0H92.2159ZM28.566 21.7182C25.2989 21.7183 22.6511 24.3671 22.651 27.6346V74.5817C22.651 74.6443 22.6532 74.7067 22.6552 74.7689C22.6532 74.8319 22.651 74.8953 22.651 74.9589C22.6511 78.2348 25.3068 80.8907 28.5828 80.8907H74.4192C77.6951 80.8907 80.3509 78.2348 80.351 74.9589C80.351 71.6829 77.6952 69.0271 74.4192 69.0271H34.4824V27.6346C34.4822 24.367 31.8332 21.7182 28.566 21.7182ZM64.837 39.9941C62.3278 37.29 58.1014 37.1315 55.3973 39.6406L46.0721 48.2938C43.3682 50.8031 43.2108 55.0295 45.7201 57.7335C48.2293 60.4375 52.4557 60.5961 55.1598 58.087L64.4835 49.4338C67.1876 46.9246 67.346 42.6982 64.837 39.9941Z" fill="white"/>
<path d="M387.063 89.8607V81.6552H409.47C410.998 81.6552 411.766 80.8337 411.766 79.1954V67.872H410.364C409.931 68.8569 409.215 69.8417 408.235 70.8266C407.246 71.7586 405.939 72.5512 404.301 73.2046C402.653 73.8051 400.577 74.1078 398.06 74.1078C394.942 74.1078 392.18 73.4256 389.773 72.0564C387.366 70.6344 385.507 68.6647 384.195 66.1473C382.884 63.5771 382.226 60.5937 382.226 57.202V32.9121H391.579V56.4621C391.579 59.7434 392.372 62.179 393.957 63.7644C395.596 65.3498 397.897 66.1425 400.851 66.1425C404.19 66.1425 406.808 65.0472 408.725 62.8613C410.695 60.6706 411.68 57.5287 411.68 53.4259V32.9121H421.029V81.1603C421.029 83.8411 420.27 85.9453 418.732 87.4778C417.205 89.0632 415.124 89.8559 412.497 89.8559H387.059L387.063 89.8607Z" fill="white"/>
<path d="M330.143 89.8614V32.9128H339.415V38.2455H340.808C341.74 36.5496 343.215 35.0459 345.238 33.7344C347.318 32.4229 350.272 31.7646 354.101 31.7646C357.383 31.7646 360.419 32.5862 363.21 34.2244C366.054 35.8097 368.327 38.1638 370.022 41.2817C371.718 44.3996 372.564 48.1469 372.564 52.5235V53.835C372.564 58.2116 371.713 61.9588 370.022 65.0767C368.327 68.1946 366.083 70.5727 363.292 72.2157C360.501 73.8011 357.44 74.5938 354.101 74.5938C351.531 74.5938 349.369 74.2911 347.621 73.6906C345.925 73.09 344.532 72.2974 343.436 71.3125C342.399 70.3277 341.577 69.3428 340.976 68.358H339.583V89.8566H330.148L330.143 89.8614ZM351.315 66.3883C354.76 66.3883 357.58 65.2929 359.766 63.107C362.009 60.8634 363.128 57.6927 363.128 53.59V52.7685C363.128 48.6129 362.004 45.4373 359.766 43.2514C357.522 41.0655 354.707 39.9702 351.315 39.9702C347.923 39.9702 345.079 41.0655 342.783 43.2514C340.539 45.4421 339.42 48.6129 339.42 52.7685V53.59C339.42 57.6927 340.544 60.8634 342.783 63.107C345.079 65.2929 347.923 66.3883 351.315 66.3883Z" fill="white"/>
<path d="M299.022 74.5986C294.973 74.5986 291.336 73.7771 288.107 72.134C284.937 70.4382 282.419 68.0601 280.56 64.9951C278.754 61.8772 277.851 58.1587 277.851 53.835V52.5235C277.851 48.1997 278.754 44.4813 280.56 41.3634C282.419 38.2455 284.937 35.8674 288.107 34.2244C291.336 32.5862 294.973 31.7646 299.022 31.7646C303.072 31.7646 306.68 32.5862 309.856 34.2244C313.027 35.8674 315.52 38.2455 317.322 41.3634C319.181 44.4813 320.113 48.1997 320.113 52.5235V53.835C320.113 58.1587 319.181 61.8772 317.322 64.9951C315.515 68.0601 313.027 70.4382 309.856 72.134C306.685 73.7771 303.072 74.5986 299.022 74.5986ZM299.022 66.225C302.467 66.225 305.287 65.1296 307.473 62.9437C309.659 60.7001 310.754 57.5822 310.754 53.59V52.7685C310.754 48.7762 309.659 45.6823 307.473 43.4964C305.282 41.2529 302.467 40.1335 299.022 40.1335C295.578 40.1335 292.758 41.2529 290.572 43.4964C288.386 45.6823 287.291 48.7762 287.291 52.7685V53.59C287.291 57.5822 288.386 60.7001 290.572 62.9437C292.763 65.1344 295.578 66.225 299.022 66.225Z" fill="white"/>
<path d="M229.333 73.4454V32.9078H238.605V38.572H239.999C240.71 37.0394 241.997 35.5886 243.856 34.2242C245.716 32.855 248.536 32.1729 252.307 32.1729C255.425 32.1729 258.187 32.8838 260.594 34.3059C263.001 35.7279 264.86 37.6976 266.177 40.215C267.546 42.7324 268.228 45.711 268.228 49.1604V73.4502H258.793V49.9002C258.793 46.6189 257.971 44.1832 256.333 42.5979C254.747 40.9548 252.475 40.1333 249.521 40.1333C246.182 40.1333 243.559 41.2575 241.642 43.4962C239.73 45.6869 238.769 48.8289 238.769 52.9316V73.4454H229.333Z" fill="white"/>
<path d="M194.532 74.5965C191.688 74.5965 189.118 74.1017 186.817 73.1169C184.52 72.0792 182.685 70.5995 181.321 68.6874C180.009 66.7753 179.351 64.4213 179.351 61.6301C179.351 58.8389 180.009 56.5954 181.321 54.7362C182.69 52.8769 184.549 51.4837 186.903 50.5517C189.257 49.5668 191.938 49.072 194.945 49.072H206.677V46.6123C206.677 44.4793 206.019 42.7546 204.707 41.443C203.396 40.0738 201.345 39.3916 198.553 39.3916C195.762 39.3916 193.74 40.0498 192.318 41.3614C190.948 42.6201 190.045 44.2583 189.608 46.2856L180.908 43.4127C181.566 41.2797 182.603 39.3388 184.026 37.5853C185.5 35.8365 187.446 34.4386 189.853 33.4009C192.26 32.3055 195.214 31.7578 198.717 31.7578C204.025 31.7578 208.181 33.0982 211.188 35.7789C214.253 38.4068 215.786 42.2357 215.786 47.2657V63.1867C215.786 64.8297 216.55 65.6464 218.082 65.6464H221.527V73.4435H214.878C212.908 73.4435 211.294 72.9487 210.035 71.9639C208.777 70.979 208.147 69.6387 208.147 67.9428V67.7795H206.754C206.427 68.5433 205.851 69.4753 205.029 70.5706C204.208 71.666 202.949 72.622 201.253 73.4435C199.61 74.2074 197.371 74.5917 194.523 74.5917L194.532 74.5965ZM196.089 66.8811C199.207 66.8811 201.748 66.0067 203.718 64.258C205.687 62.4516 206.672 60.0447 206.672 57.0373V56.2158H195.512C193.49 56.2158 191.847 56.653 190.588 57.5273C189.329 58.4017 188.7 59.6892 188.7 61.3851C188.7 63.081 189.358 64.3685 190.67 65.4062C191.981 66.391 193.788 66.8811 196.084 66.8811H196.089Z" fill="white"/>
<path d="M152.61 74.5986C148.671 74.5986 145.116 73.7771 141.94 72.134C138.77 70.4958 136.252 68.113 134.393 64.9951C132.587 61.8772 131.684 58.1299 131.684 53.7533V52.6051C131.684 48.2285 132.587 44.4813 134.393 41.3634C136.252 38.2455 138.77 35.8674 141.94 34.2244C145.111 32.5862 148.671 31.7646 152.61 31.7646C156.55 31.7646 159.802 32.4468 162.541 33.816C165.332 35.1852 167.575 37.0685 169.271 39.4802C170.967 41.8342 172.063 44.4861 172.553 47.4406L163.444 49.3287C163.223 47.6328 162.704 46.1003 161.883 44.7311C161.061 43.309 159.884 42.1849 158.356 41.3682C156.877 40.5467 155.046 40.1383 152.86 40.1383C150.674 40.1383 148.594 40.6331 146.788 41.6132C145.039 42.5452 143.641 43.9672 142.603 45.8793C141.619 47.7913 141.129 50.0926 141.129 52.7733V53.5948C141.129 56.2755 141.623 58.5719 142.603 60.4887C143.641 62.348 145.039 63.77 146.788 64.7548C148.594 65.7397 150.617 66.2297 152.86 66.2297C156.199 66.2297 158.717 65.3794 160.408 63.6883C162.156 61.9396 163.252 59.6961 163.689 56.9577L172.798 59.0907C172.139 61.9348 170.962 64.5338 169.271 66.8879C167.575 69.2419 165.332 71.1252 162.541 72.552C159.807 73.9212 156.497 74.6034 152.61 74.6034V74.5986Z" fill="white"/>
</svg>
